<?xml version="1.0" standalone="no"?>
<!DOCTYPE svg PUBLIC "-//W3C//DTD SVG 20010904//EN"
 "http://www.w3.org/TR/2001/REC-SVG-20010904/DTD/svg10.dtd">
<svg version="1.0" xmlns="http://www.w3.org/2000/svg"
 width="192.000000pt" height="192.000000pt" viewBox="0 0 192.000000 192.000000"
 preserveAspectRatio="xMidYMid meet">

<g transform="translate(0.000000,192.000000) scale(0.100000,-0.100000)"
fill="#000000" stroke="none">
<path d="M856 1874 c-326 -70 -568 -254 -673 -510 -69 -171 -90 -363 -58 -547
69 -394 290 -651 650 -753 75 -22 118 -27 262 -31 189 -6 300 7 441 53 128 42
304 141 319 180 7 20 -303 334 -330 334 -10 0 -40 -11 -67 -25 -75 -38 -154
-55 -255 -55 -218 0 -361 82 -448 258 -41 84 -42 87 -42 191 0 137 25 208 102
291 154 167 440 208 663 95 50 -26 53 -26 72 -8 45 40 313 313 315 320 7 20
-232 129 -372 171 -179 53 -427 68 -579 36z"/>
<path d="M992 1184 c-115 -57 -168 -184 -127 -305 71 -209 365 -229 465 -33
49 96 27 222 -52 297 -74 71 -192 88 -286 41z"/>
</g>
</svg>
